<svg width="19" height="19" viewBox="0 0 19 19" fill="none" xmlns="http://www.w3.org/2000/svg">
<path d="M17.0484 0.0117302C17.0289 0.0101566 17.0125 0 16.9921 0H8.59375C7.30157 0 6.25 1.05157 6.25 2.34375V3.12495C6.25 3.55625 6.5999 3.9063 7.0312 3.9063C7.4625 3.9063 7.8124 3.55625 7.8124 3.12495V2.34375C7.8124 1.91331 8.16317 1.56255 8.59375 1.56255H12.2335L11.9952 1.64223C11.3625 1.86095 10.9375 2.45705 10.9375 3.12495V14.8437H8.59375C8.16317 14.8437 7.8124 14.4929 7.8124 14.0625V12.5C7.8124 12.0688 7.4625 11.7188 7.0312 11.7188C6.5999 11.7188 6.25 12.0688 6.25 12.5V14.0625C6.25 15.3547 7.30157 16.4062 8.59375 16.4062H10.9375V17.1875C10.9375 18.0492 11.6382 18.75 12.4999 18.75C12.6671 18.75 12.8258 18.7258 12.9976 18.6726L17.6914 17.1078C18.3249 16.889 18.75 16.293 18.75 15.625V1.56255C18.75 0.651598 17.9647 -0.0625133 17.0484 0.0117302V0.0117302Z" fill="white"/>
<path d="M8.36477 7.26016L5.23982 4.1352C5.01637 3.91176 4.68049 3.84452 4.38824 3.96569C4.09684 4.08671 3.9063 4.37195 3.9063 4.68752V7.03127H0.781202C0.350046 7.03127 0 7.38132 0 7.81248C0 8.24378 0.350046 8.59382 0.781202 8.59382H3.9063V10.9376C3.9063 11.2531 4.09684 11.5382 4.38824 11.6594C4.68049 11.7804 5.01637 11.7133 5.23982 11.4899L8.36477 8.3648C8.67033 8.05938 8.67033 7.56571 8.36477 7.26016Z" fill="white"/>
</svg>
